<svg width="40" height="35" viewBox="0 0 40 35" fill="none" xmlns="http://www.w3.org/2000/svg">
<path d="M17.8853 5.35034C17.3853 4.9129 16.7071 4.66717 16 4.66717C15.2929 4.66717 14.6147 4.9129 14.1147 5.35034L2.11466 15.8503C1.61474 16.2879 1.3339 16.8813 1.3339 17.5C1.3339 18.1187 1.61474 18.7121 2.11466 19.1497L14.1147 29.6497C14.6176 30.0747 15.2912 30.3099 15.9904 30.3046C16.6896 30.2993 17.3584 30.0539 17.8528 29.6212C18.3473 29.1886 18.6277 28.6034 18.6338 27.9916C18.6399 27.3798 18.3711 26.7904 17.8853 26.3503L10.6667 19.8333H36C36.7072 19.8333 37.3855 19.5875 37.8856 19.1499C38.3857 18.7123 38.6667 18.1188 38.6667 17.5C38.6667 16.8812 38.3857 16.2877 37.8856 15.8501C37.3855 15.4125 36.7072 15.1667 36 15.1667H10.6667L17.8853 8.64967C18.3853 8.2121 18.6661 7.61872 18.6661 7C18.6661 6.38129 18.3853 5.7879 17.8853 5.35034Z" fill="black"/>
</svg>
