<svg width="100" height="100" viewBox="0 0 100 100" fill="none" xmlns="http://www.w3.org/2000/svg">
<g filter="url(#filter0_ddd_21_23)">
<circle cx="49.6591" cy="39.6591" r="29.6591" fill="white"/>
</g>
<g clip-path="url(#clip0_21_23)">
<path d="M58.4992 32.2692C57.9884 31.7582 57.382 31.3528 56.7145 31.0763C56.0471 30.7997 55.3317 30.6573 54.6092 30.6573C53.8867 30.6573 53.1713 30.7997 52.5038 31.0763C51.8364 31.3528 51.2299 31.7582 50.7192 32.2692L49.6592 33.3292L48.5992 32.2692C47.5675 31.2375 46.1682 30.6579 44.7092 30.6579C43.2501 30.6579 41.8509 31.2375 40.8192 32.2692C39.7875 33.3009 39.2079 34.7001 39.2079 36.1592C39.2079 37.6182 39.7875 39.0175 40.8192 40.0492L41.8792 41.1092L49.6592 48.8892L57.4392 41.1092L58.4992 40.0492C59.0102 39.5384 59.4155 38.932 59.6921 38.2645C59.9687 37.5971 60.111 36.8817 60.111 36.1592C60.111 35.4367 59.9687 34.7213 59.6921 34.0538C59.4155 33.3864 59.0102 32.7799 58.4992 32.2692V32.2692Z" stroke="black" stroke-width="2" stroke-linecap="round" stroke-linejoin="round"/>
</g>
<defs>
<filter id="filter0_ddd_21_23" x="0" y="0" width="99.3181" height="99.3181" filterUnits="userSpaceOnUse" color-interpolation-filters="sRGB">
<feFlood flood-opacity="0" result="BackgroundImageFix"/>
<feColorMatrix in="SourceAlpha" type="matrix" values="0 0 0 0 0 0 0 0 0 0 0 0 0 0 0 0 0 0 127 0" result="hardAlpha"/>
<feOffset/>
<feGaussianBlur stdDeviation="0.5"/>
<feColorMatrix type="matrix" values="0 0 0 0 0 0 0 0 0 0 0 0 0 0 0 0 0 0 0.04 0"/>
<feBlend mode="normal" in2="BackgroundImageFix" result="effect1_dropShadow_21_23"/>
<feColorMatrix in="SourceAlpha" type="matrix" values="0 0 0 0 0 0 0 0 0 0 0 0 0 0 0 0 0 0 127 0" result="hardAlpha"/>
<feOffset dy="2"/>
<feGaussianBlur stdDeviation="3"/>
<feColorMatrix type="matrix" values="0 0 0 0 0 0 0 0 0 0 0 0 0 0 0 0 0 0 0.04 0"/>
<feBlend mode="normal" in2="effect1_dropShadow_21_23" result="effect2_dropShadow_21_23"/>
<feColorMatrix in="SourceAlpha" type="matrix" values="0 0 0 0 0 0 0 0 0 0 0 0 0 0 0 0 0 0 127 0" result="hardAlpha"/>
<feOffset dy="10"/>
<feGaussianBlur stdDeviation="10"/>
<feColorMatrix type="matrix" values="0 0 0 0 0 0 0 0 0 0 0 0 0 0 0 0 0 0 0.04 0"/>
<feBlend mode="normal" in2="effect2_dropShadow_21_23" result="effect3_dropShadow_21_23"/>
<feBlend mode="normal" in="SourceGraphic" in2="effect3_dropShadow_21_23" result="shape"/>
</filter>
<clipPath id="clip0_21_23">
<rect width="24" height="24" fill="white" transform="translate(37.6592 27.6592)"/>
</clipPath>
</defs>
</svg>
